# xmcd
#
# Track frame offsets:
#  150
#  12946
#  23365
#  36650
#  48874
#  62670
#  75506
#  88066
#  101663
#  114655
#  132740
#  145373
#  157707
#  172335
#  186801
#  199855
#  214856
#  231204
#  243316
#
# Disc length: 3456 seconds
#
# Revision: 0
# Processed by: cddbd v1.5.1PL2 Copyright (c) Steve Scherf et al.
# Submitted via: Collectorz.com_Music_Collector 6.11
#
DISCID=080d7e13
DTITLE=Various Artist - Your Top 100 [CD3)
DYEAR=2002
DGENRE=Reader's Digest Compilation
TTITLE0=Johnny Mathis - A Certain Smile
TTITLE1=Neil Sedaka - Oh! Carol
TTITLE2=Sacha Distel [1933-2004] - Raindrop's Keep Fallin' On My Head
TTITLE3=Perry Como (1912-2001) - Magic Moments
TTITLE4=Engelbert Humperdinck (Gerry Dorsey) (1936-    ) - The Last Waltz
TTITLE5=Des O'Connor (1932-    ) - I Pretend
TTITLE6=Daniel O'Donnell - Singing The Blues
TTITLE7=Val Doonican (1928-    ) - The Way We Were
TTITLE8=Vince Hill (1937-    ) - Edelweiss
TTITLE9=Roger Whittaker (1936-    ) - The Last Farewell
TTITLE10=Jim Reeves (1923-1964) - I Love You Because
TTITLE11=Tammy Wynette (1942-1998) - Stand By Your Man
TTITLE12=Framkie Laine - Jezebel
TTITLE13=Glen Campbell (1936-    ) - Rhinestone Cowboy
TTITLE14=Dr Hook - When You're In Love With A Beautiful Woman
TTITLE15=Olivia Newton-John - Take Me Home, Country Roads
TTITLE16=Kenny Rogers (1938-    ) - Lucille
TTITLE17=Dolly Parton - Jolene
TTITLE18=John Denver (1943-1997) - Leaving On A Jet Plane (Live)
EXTD=
EXTT0=
EXTT1=
EXTT2=
EXTT3=
EXTT4=
EXTT5=
EXTT6=
EXTT7=
EXTT8=
EXTT9=
EXTT10=
EXTT11=
EXTT12=
EXTT13=
EXTT14=
EXTT15=
EXTT16=
EXTT17=
EXTT18=
PLAYORDER=
